<svg width="48" height="48" viewBox="0 0 48 48" fill="none" xmlns="http://www.w3.org/2000/svg">
<g clip-path="url(#clip0_1485_34)">
<rect width="48" height="48" rx="5" fill="#037D00"/>
<path d="M25.75 24.8768C27.5942 24.8768 29.1067 26.3039 29.2404 28.1155L29.25 28.3768V29.25H26.625V28.3768C26.625 27.9475 26.3138 27.59 25.9068 27.5159L25.75 27.5018L10 27.5L9.82384 27.5175C9.60618 27.5618 9.4575 27.6799 9.3805 27.7555C9.3049 27.8325 9.18674 27.98 9.1425 28.1982L9.125 28.375V31.875C9.125 33.6407 9.9125 34.8885 11.6047 35.7985C13.0505 36.5771 15.1091 37.0485 17.3195 37.1164L17.875 37.125L18.4305 37.1164C19.7983 37.0744 21.1076 36.8779 22.25 36.5496V39.2626C20.7847 39.6079 19.2637 39.75 17.875 39.75C13.1113 39.75 6.78823 38.077 6.50954 32.2768L6.5 31.875V28.375C6.5 26.5308 7.9287 25.0183 9.73892 24.8846L10 24.875L25.75 24.8768ZM40.625 29.25C40.9246 29.25 41.2172 29.2801 41.5 29.3375V28.3768L41.4904 28.1157C41.3567 26.3055 39.8442 24.8768 38 24.8768H29.635L29.8704 25.1564C30.3969 25.8274 30.7638 26.6243 30.9108 27.5018H38L38.1568 27.5159C38.5639 27.59 38.875 27.9475 38.875 28.3768V29.25H40.625ZM17.875 6.5C22.2238 6.5 25.75 10.0263 25.75 14.375C25.75 18.7238 22.2238 22.25 17.875 22.25C13.5263 22.25 10 18.7238 10 14.375C10 10.0263 13.5263 6.5 17.875 6.5ZM17.875 9.125C14.9805 9.125 12.625 11.4805 12.625 14.375C12.625 17.2695 14.9805 19.625 17.875 19.625C20.7695 19.625 23.125 17.2695 23.125 14.375C23.125 11.4805 20.7695 9.125 17.875 9.125ZM33.625 10C37.0077 10 39.75 12.7422 39.75 16.125C39.75 19.5077 37.0077 22.25 33.625 22.25C30.2423 22.25 27.5 19.5077 27.5 16.125C27.5 12.7422 30.2423 10 33.625 10ZM33.625 12.625C31.6947 12.625 30.125 14.1947 30.125 16.125C30.125 18.0553 31.6947 19.625 33.625 19.625C35.5553 19.625 37.125 18.0553 37.125 16.125C37.125 14.1947 35.5553 12.625 33.625 12.625ZM24 33.625C24 32.1753 25.1753 31 26.625 31H40.625C42.0747 31 43.25 32.1753 43.25 33.625V40.625C43.25 42.0747 42.0747 43.25 40.625 43.25H26.625C25.1753 43.25 24 42.0747 24 40.625V33.625ZM41.5 34.5C40.5335 34.5 39.75 33.7165 39.75 32.75H38C38 34.6831 39.567 36.25 41.5 36.25V34.5ZM41.5 38C39.567 38 38 39.567 38 41.5H39.75C39.75 40.5335 40.5335 39.75 41.5 39.75V38ZM27.5 32.75C27.5 33.7165 26.7165 34.5 25.75 34.5V36.25C27.6831 36.25 29.25 34.6831 29.25 32.75H27.5ZM29.25 41.5C29.25 39.567 27.6831 38 25.75 38V39.75C26.7165 39.75 27.5 40.5335 27.5 41.5H29.25ZM36.6875 37.125C36.6875 35.4336 35.3164 34.0625 33.625 34.0625C31.9336 34.0625 30.5625 35.4336 30.5625 37.125C30.5625 38.8164 31.9336 40.1875 33.625 40.1875C35.3164 40.1875 36.6875 38.8164 36.6875 37.125Z" fill="white"/>
</g>
<defs>
<clipPath id="clip0_1485_34">
<rect width="48" height="48" fill="white"/>
</clipPath>
</defs>
</svg>
